<svg width="60" height="60" viewBox="0 0 60 60" fill="none" xmlns="http://www.w3.org/2000/svg">
<path d="M54.7625 13.0592C49.3571 5.1733 40.2827 0 30 0C13.4315 0 0 13.4314 0 30C0 32.4105 0.2843 34.7545 0.821171 37.0005L16.0983 21.7233C17.5628 20.2589 19.9372 20.2589 21.4017 21.7233L33.75 34.0717L54.7625 13.0592Z" fill="#EF2A82"/>
<path d="M58.3281 20.1002L36.4017 42.0267C34.9372 43.4911 32.5628 43.4911 31.0983 42.0267L18.75 29.6783L3.80127 44.627C8.93324 53.7993 18.7425 60 30 60C46.5686 60 60 46.5686 60 30C60 26.531 59.4112 23.1996 58.3281 20.1002Z" fill="#EF2A82"/>
</svg>
