<svg width="502" height="502" viewBox="0 0 502 502" fill="none" xmlns="http://www.w3.org/2000/svg">
<g opacity="0.07">
<path d="M458.18 109.262C412.955 43.2833 337.032 0 251 0C112.377 0 0 112.376 0 251C0 271.168 2.37864 290.78 6.87046 309.571L134.69 181.752C146.942 169.499 166.808 169.499 179.061 181.752L282.375 285.067L458.18 109.262Z" fill="#EEEEF7"/>
<path d="M488.012 168.171L304.561 351.623C292.308 363.876 272.442 363.876 260.19 351.623L156.875 248.309L31.804 373.38C74.7415 450.121 156.812 502 251 502C389.624 502 502 389.624 502 251C502 221.976 497.074 194.103 488.012 168.171Z" fill="#EEEEF7"/>
</g>
</svg>
